<svg id="Capa_1" data-name="Capa 1" xmlns="http://www.w3.org/2000/svg" viewBox="0 0 403.43 500"><defs><style>.cls-1{fill:#034059;}</style></defs><path class="cls-1" d="M306,414.83c-2.58.12-5.24.35-7.9.35q-139,0-278,.18c-7.22,0-9.5-1.92-9.22-9.12.51-13.28.14-26.61.14-40.91H255.34c-7.23-63.24-33.65-115.43-79.71-157.39S74.28,145.54,11.14,143.88c0-15.52-.21-30.16.32-44.78,0-1.54,4.48-4.2,6.87-4.19A257.22,257.22,0,0,1,97.84,107.6q125.49,41,181.94,160.53A275.93,275.93,0,0,1,306,377.83C306.33,389.79,306,401.77,306,414.83Z"/><path class="cls-1" d="M11.17,52.13c0-15.31,0-29.7,0-44.09,0-5.62,3.95-4.83,7.43-4.79,31.8.39,63,4.88,93.24,14.74C240.24,59.9,322.84,148.38,369,273.1c15.52,41.95,22.82,85.68,23.59,130.49.12,7.25-1.95,9.7-9.14,9.36-10.61-.49-21.28-.48-31.9-.08-6.33.23-8.52-2-8.69-8.33A379.39,379.39,0,0,0,321,287a370.25,370.25,0,0,0-71.88-122.63c-28.43-32.21-61.46-58.61-99.78-78.14A304.26,304.26,0,0,0,20.64,52.83C17.93,52.73,15.23,52.43,11.17,52.13Z"/><path class="cls-1" d="M45.46,465.45V446.57H58v50.24H45.46V478H23.69v18.81H11.15V446.57H23.69v18.88Z"/><path class="cls-1" d="M83.16,496.81H70.61V446.57H83.16Z"/><path class="cls-1" d="M135.91,466.1h2.45v30.71H117.25a25,25,0,0,1-8.44-1.41,24.32,24.32,0,0,1-7.1-3.89,25.31,25.31,0,0,1-5.37-5.84A25,25,0,0,1,93,478.46a25.49,25.49,0,0,1-.9-8A23.73,23.73,0,0,1,94,462.14a25,25,0,0,1,4.54-7.21,24.58,24.58,0,0,1,6.3-5,25.56,25.56,0,0,1,7.43-2.74,25.12,25.12,0,0,1,7.93-.33,25.41,25.41,0,0,1,7.78,2.24,24.67,24.67,0,0,1,7,4.93l-8.87,9.59a10.38,10.38,0,0,0-5.4-3.93,12.93,12.93,0,0,0-5.95-.25,12.57,12.57,0,0,0-5.37,2.49,12.2,12.2,0,0,0-3.75,5,12,12,0,0,0-.9,6.19,12.7,12.7,0,0,0,6.42,9.63,12,12,0,0,0,6.09,1.55h8.43v-6.42H113.43V466.1h22.48Z"/><path class="cls-1" d="M183.41,465.45V446.57H196v50.24H183.41V478H161.64v18.81H149.1V446.57h12.54v18.88Z"/><path class="cls-1" d="M248.78,446.64h13.63v12.54H248.78v37.63H236.24V459.18H222.55V446.64h26.23Z"/><path class="cls-1" d="M283.52,496.81H271V446.57h12.54Z"/><path class="cls-1" d="M319.85,446.64A24.88,24.88,0,0,1,337.58,454a25.81,25.81,0,0,1,5.37,8,25.07,25.07,0,0,1,0,19.53,25.12,25.12,0,0,1-13.34,13.34,24.3,24.3,0,0,1-9.76,2H299.09V446.64h20.76Zm0,37.63a12.16,12.16,0,0,0,4.86-1,12.73,12.73,0,0,0,6.71-6.7,12.69,12.69,0,0,0,0-9.73,12.73,12.73,0,0,0-6.71-6.7,12.16,12.16,0,0,0-4.86-1h-8.22v25.09h8.22Z"/><path class="cls-1" d="M353.43,459.18V446.64h39.14v12.54H366v6.27h20.75V478H366v6.27h26.59v12.54H353.43V459.18Z"/></svg>