<svg id="Capa_1" data-name="Capa 1" xmlns="http://www.w3.org/2000/svg" viewBox="0 0 472 500"><defs><style>.cls-1{fill:#ffff;}</style></defs><path class="cls-1" d="M360,494.33c-3.07.14-6.23.41-9.39.41q-165.24,0-330.46.21c-8.59,0-11.29-2.28-11-10.83.6-15.79.17-31.63.17-48.63h290.4c-8.6-75.16-40-137.2-94.74-187.07-54.9-50-120.48-74.18-195.52-76.15,0-18.45-.25-35.85.37-53.22.07-1.84,5.33-5,8.17-5a305.86,305.86,0,0,1,94.51,15.09Q261.69,177.87,328.79,320a328.13,328.13,0,0,1,31.12,130.39C360.35,464.56,360,478.81,360,494.33Z"/><path class="cls-1" d="M9.52,63.21c0-18.19,0-35.29,0-52.4,0-6.69,4.69-5.74,8.83-5.69,37.8.46,74.91,5.8,110.83,17.52C281.79,72.45,380,177.61,434.82,325.87c18.44,49.86,27.12,101.83,28,155.1.15,8.61-2.31,11.53-10.86,11.13-12.62-.59-25.29-.57-37.91-.1-7.53.28-10.13-2.32-10.33-9.9a451.15,451.15,0,0,0-26-139.74c-19.19-54.09-47.45-102.74-85.43-145.75-33.81-38.29-73.07-69.67-118.61-92.89A361.87,361.87,0,0,0,20.77,64C17.55,63.93,14.34,63.57,9.52,63.21Z"/></svg>